<svg width="1056" height="367" viewBox="0 0 1056 367" fill="none" xmlns="http://www.w3.org/2000/svg">
<g clip-path="url(#clip0_6233_2256)">
<path d="M0 30C0 13.4315 13.4315 0 30 0H1026C1042.57 0 1056 13.4315 1056 30V337C1056 353.569 1042.57 367 1026 367H30C13.4314 367 0 353.569 0 337V30Z" fill="#C5B8FA"/>
<g opacity="0.4">
<path d="M632 232.775L602.252 178.225C593.011 183.862 554.401 214.39 530.665 239.216C539.084 204.997 544.717 154.272 544.717 143H485.283C485.283 154.272 490.916 205.064 499.335 239.216C475.599 214.39 436.926 183.862 427.748 178.225L398 232.775C407.241 238.411 451.484 258.674 483.638 268C451.484 277.393 407.241 297.589 398 303.225L427.748 357.775C436.989 352.138 475.599 321.61 499.335 296.784C490.916 331.003 485.283 381.728 485.283 393H544.717C544.717 381.728 539.084 330.936 530.665 296.784C554.401 321.61 593.074 352.138 602.252 357.775L632 303.225C622.759 297.589 578.516 277.326 546.362 268C578.516 258.607 622.759 238.411 632 232.775Z" fill="#8053ED" fill-opacity="0.2"/>
</g>
<g opacity="0.4">
<path d="M836 -27.0853L819.473 -57.4147C814.339 -54.281 792.889 -37.307 779.703 -23.504C784.38 -42.5298 787.509 -70.7327 787.509 -77H754.491C754.491 -70.7327 757.62 -42.4925 762.297 -23.504C749.111 -37.307 727.626 -54.281 722.527 -57.4147L706 -27.0853C711.134 -23.9517 735.713 -12.6854 753.576 -7.49999C735.713 -2.27724 711.134 8.9517 706 12.0854L722.527 42.4146C727.661 39.281 749.111 22.307 762.297 8.50403C757.62 27.5298 754.491 55.7327 754.491 62H787.509C787.509 55.7327 784.38 27.4925 779.703 8.50403C792.889 22.307 814.374 39.281 819.473 42.4146L836 12.0854C830.866 8.9517 806.287 -2.31454 788.424 -7.49999C806.287 -12.7228 830.866 -23.9517 836 -27.0853Z" fill="#8053ED" fill-opacity="0.2"/>
</g>
<g opacity="0.4">
<path d="M1120 123.837L1102.84 94.1626C1097.51 97.2287 1075.23 113.836 1061.54 127.341C1066.39 108.726 1069.64 81.132 1069.64 75H1035.36C1035.36 81.132 1038.61 108.763 1043.46 127.341C1029.77 113.836 1007.46 97.2287 1002.16 94.1626L985 123.837C990.331 126.903 1015.86 137.926 1034.41 143C1015.86 148.11 990.331 159.097 985 162.163L1002.16 191.837C1007.49 188.771 1029.77 172.164 1043.46 158.659C1038.61 177.274 1035.36 204.868 1035.36 211H1069.64C1069.64 204.868 1066.39 177.237 1061.54 158.659C1075.23 172.164 1097.54 188.771 1102.84 191.837L1120 162.163C1114.67 159.097 1089.14 148.074 1070.59 143C1089.14 137.89 1114.67 126.903 1120 123.837Z" fill="#8053ED" fill-opacity="0.2"/>
</g>
</g>
<defs>
<clipPath id="clip0_6233_2256">
<path d="M0 30C0 13.4315 13.4315 0 30 0H1026C1042.57 0 1056 13.4315 1056 30V337C1056 353.569 1042.57 367 1026 367H30C13.4314 367 0 353.569 0 337V30Z" fill="white"/>
</clipPath>
</defs>
</svg>
